Motion_kv10_l
version=1
nRows=12
nColumns=43
inDegrees=yes
endheader
time	pelvis_tilt	pelvis_list	pelvis_rotation	pelvis_tx	pelvis_ty	pelvis_tz	hip_flexion_r	hip_adduction_r	hip_rotation_r	knee_angle_r	ankle_angle_r	subtalar_angle_r	mtp_angle_r	hip_flexion_l	hip_adduction_l	hip_rotation_l	knee_angle_l	ankle_angle_l	subtalar_angle_l	mtp_angle_l	lumbar_extension	lumbar_bending	lumbar_rotation	neck_flexion	neck_lateral_bending	neck_rotation	arm_flex_r	arm_add_r	arm_rot_r	elbow_flex_r	pro_sup_r	wrist_flex_r	wrist_dev_r	hand_finger_flex_r	arm_flex_l	arm_add_l	arm_rot_l	elbow_flex_l	pro_sup_l	wrist_flex_l	wrist_dev_l	hand_finger_flex_l
      0.72500000	      1.35191174	    -20.49773060	     84.29389303	     -0.00023456	      0.87808681	      1.85063111	     46.11744926	     -2.86541484	     -5.68852937	    -59.72484048	      6.95460571	     -5.52091964	     16.99998774	     45.22451894	     -7.16363311	     -1.64695332	    -61.74829924	      6.34470743	      0.05174326	     29.15329409	    -28.12541533	      0.89555114	      6.66901907	     25.41546277	     -5.33451964	     -7.05240450	     80.29373765	    -21.91079649	      7.75888686	     73.75597761	    161.32605106	      3.67809006	    -11.20402812	     66.44518711	     80.87729797	    -26.65058308	     10.59439221	     66.58695485	    152.16496267	     -9.34372349	     -6.63095991	     66.62079329
      0.72750000	      1.41465726	    -20.65613981	     84.28627668	     -0.00013984	      0.88414808	      1.84484662	     45.26919093	     -2.98312801	     -6.00589172	    -58.40688173	      5.83672713	     -4.91939985	     17.18336935	     44.34992717	     -7.39734996	     -1.95932720	    -60.33739523	      5.22037785	      0.50263242	     29.28653282	    -27.82643316	      0.91830993	      6.67445372	     24.82211318	     -5.19596105	     -7.06136515	     78.78130593	    -22.17863215	      7.63870138	     74.44667414	    161.16615807	      3.35688449	    -11.18403391	     66.39530282	     79.30572152	    -26.66263251	     10.15811076	     67.32785256	    152.08396890	     -9.68294252	     -6.58627389	     66.58709645
      0.73000000	      1.51994059	    -20.61883679	     84.28471059	     -0.00010566	      0.89070519	      1.83879141	     44.11747273	     -3.08413728	     -6.36103216	    -56.92605158	      4.64754870	     -4.18057391	     17.57423886	     43.24092310	     -7.66385724	     -2.30734117	    -58.90062024	      4.05518555	      1.03386371	     29.59388859	    -27.77419463	      0.96912113	      6.67517292	     24.29235352	     -5.08074044	     -7.02959808	     77.35429054	    -22.45148711	      7.64503478	     75.05768328	    161.07605117	      2.78514234	    -11.10319528	     66.19943817	     77.72089295	    -26.63745709	      9.63592600	     68.08017699	    152.32388744	    -10.16471446	     -6.42733249	     66.48926083
      0.73250000	      1.63156808	    -20.52573119	     84.30122656	     -0.00008900	      0.89739245	      1.83263148	     42.89388096	     -3.20071159	     -6.76087209	    -55.42619801	      3.40338293	     -3.42993213	     18.09370946	     42.05102102	     -7.92897195	     -2.67823805	    -57.40404370	      2.83249500	      1.58824263	     30.00845912	    -27.79175285	      1.02592724	      6.64951681	     23.73447094	     -4.95840354	     -6.94756302	     75.97957517	    -22.76088656	      7.75693861	     75.60904455	    160.95464854	      2.15375338	    -11.01806321	     65.97244806	     76.17488996	    -26.66064555	      9.18396106	     68.80559800	    152.66460698	    -10.62730173	     -6.29036460	     66.39114405
      0.73500000	      1.82561925	    -20.04182205	     84.45279198	     -0.00043517	      0.90474448	      1.82590985	     41.10435127	     -3.42768453	     -7.44645531	    -53.71813271	      1.71246912	     -2.87426799	     22.84245823	     40.39336653	     -8.22340578	     -3.17273279	    -55.79753102	      1.27774818	      2.02018997	     33.94383947	    -28.24889049	      1.20833206	      6.51442800	     23.15583267	     -4.90009453	     -6.75571661	     74.85514685	    -23.26318400	      8.40497317	     75.91250017	    160.04292986	      0.84419013	    -10.63598056	     65.90232553	     74.69172415	    -26.71217681	      8.64278259	     69.50158880	    153.63722560	    -10.70170179	     -6.50806152	     66.16616494
      0.73750000	      1.85207628	    -20.21018593	     84.38444548	     -0.00039417	      0.91105309	      1.81987367	     40.17841552	     -3.50894190	     -7.71324926	    -52.16055935	      0.28676404	     -2.06902755	     22.94118227	     39.48897158	     -8.43169523	     -3.56788641	    -54.27731650	     -0.07127404	      2.53697605	     34.03582210	    -27.99511288	      1.18128628	      6.53777011	     22.64502179	     -4.70565382	     -6.65150376	     73.39777541	    -23.56056557	      8.38905452	     76.54956785	    160.14952715	      0.37462106	    -10.55711797	     65.79444001	     73.12094818	    -26.72016863	      8.26861074	     70.21792801	    153.58708697	    -11.21297577	     -6.30458384	     66.07227645
      0.74000000	      1.95628996	    -19.82809619	     84.36624444	     -0.00044697	      0.91835767	      1.81302914	     38.52684728	     -3.63946581	     -8.18474076	    -50.44901142	     -0.99884327	     -1.19481212	     23.76619950	     37.83628578	     -8.70592727	     -4.18082893	    -52.57232770	     -1.33844695	      3.11916857	     34.74381939	    -28.37669955	      1.21419609	      6.48541978	     22.21961700	     -4.62134505	     -6.38400568	     72.09469573	    -23.92081149	      8.68708030	     77.07835662	    160.12547076	     -0.68059775	    -10.39879929	     65.38187905	     71.57865479	    -26.87184056	      7.93483826	     70.98258011	    154.01407482	    -11.97059444	     -6.01811093	     65.88001888
      0.74250000	      1.97548100	    -19.98855903	     84.38840543	     -0.00050032	      0.92476581	      1.80701735	     37.58657248	     -3.80686355	     -8.62307598	    -48.83575001	     -2.72686437	     -0.40063590	     23.98872030	     36.91654025	     -8.92032842	     -4.73596541	    -50.94440949	     -3.02618763	      3.73166070	     34.93251851	    -28.15201627	      1.21540916	      6.40748624	     21.68275942	     -4.42127988	     -6.26813808	     70.75930067	    -24.21232724	      8.77054919	     77.52592045	    159.92018639	     -1.09088689	    -10.32884001	     65.28639311	     70.15879065	    -26.89453429	      7.64714768	     71.52214280	    153.94634516	    -12.32996525	     -5.96224719	     65.84908506
      0.74500000	      2.10525588	    -19.33530878	     84.42704154	     -0.00073175	      0.93267783	      1.79986842	     35.56563071	     -3.95848501	     -9.13792071	    -46.91104912	     -4.69343495	      0.42947352	     27.93443767	     34.91334493	     -9.13082319	     -5.33687299	    -49.03964491	     -4.85456656	      4.29812909	     38.32495485	    -28.86294456	      1.27976376	      6.31030429	     21.19629217	     -4.33728019	     -6.01382286	     69.70272775	    -24.71715241	      9.48311865	     77.79560416	    158.97238689	     -2.62033999	     -9.79037995	     65.17777954	     68.75254049	    -27.05554961	      7.35560930	     72.11297157	    154.29073651	    -13.04099025	     -5.98591136	     65.80350909
      0.74750000	      2.15815879	    -19.29563311	     84.37973478	     -0.00074020	      0.93944901	      1.79322773	     34.26658514	     -4.07773846	     -9.62193013	    -45.05507496	     -6.34086645	      1.25584630	     28.46430020	     33.63495601	     -9.43206892	     -6.21436017	    -47.27548995	     -6.42442288	      4.74324291	     38.79342175	    -28.91143450	      1.27011144	      6.31325650	     20.94608872	     -4.18152069	     -5.74657604	     68.30370050	    -25.05663522	      9.56744731	     78.41080829	    159.14273786	     -3.48980912	     -9.65239273	     64.92583517	     67.20918466	    -27.11067046	      7.02882818	     72.81242278	    154.49095052	    -13.84450545	     -5.88011391	     65.61695031
      0.75000000	      2.18252458	    -19.47784540	     84.39812742	     -0.00075907	      0.94593713	      1.78710538	     33.30758105	     -4.20858005	    -10.10748643	    -43.28469379	     -8.31603088	      2.09509874	     28.61378909	     32.66044303	     -9.63597438	     -6.91312187	    -45.47217968	     -8.33805302	      5.34374445	     38.91283790	    -28.70036229	      1.27143893	      6.23920023	     20.43579508	     -3.99532507	     -5.65479610	     67.00328762	    -25.30040014	      9.64084295	     78.77886840	    158.96955279	     -3.93419075	     -9.57303515	     64.80348770	     65.83691928	    -27.12389545	      6.77075887	     73.23003410	    154.46234115	    -14.32417145	     -5.85893014	     65.54226160
      0.75250000	      2.28968105	    -18.64430151	     84.39127438	     -0.00098039	      0.95414452	      1.77965846	     30.99695612	     -4.35705188	    -10.63151478	    -41.10911212	    -10.39733688	      3.06437356	     31.32676278	     30.35573111	     -9.83115107	     -7.81837247	    -43.39280673	    -10.26771124	      5.94225140	     41.14860150	    -29.61072036	      1.27939895	      6.16528718	     19.86554540	     -3.87241048	     -5.48987310	     66.02069952	    -25.71953604	     10.26963532	     78.93190741	    158.37159064	     -5.38754495	     -9.19120607	     64.49193875	     64.55952670	    -27.26635351	      6.64180291	     73.50864563	    154.91389341	    -15.60246873	     -6.07742115	     65.41637548
